<?xml version="1.0" encoding="utf-8"?>
<!-- Generator: Adobe Illustrator 23.0.1, SVG Export Plug-In . SVG Version: 6.00 Build 0)  -->
<svg version="1.1" id="Layer_1" xmlns="http://www.w3.org/2000/svg" xmlns:xlink="http://www.w3.org/1999/xlink" x="0px" y="0px"
	 viewBox="0 0 175.9 139.1" style="enable-background:new 0 0 175.9 139.1;" xml:space="preserve">
<style type="text/css">
	.st0{fill:#EB2227;}
</style>
<g>
	<path class="st0" d="M21.3,31.6l-13.7-1c-5.5,0-8.7,3.2-7.3,7.1L29,109.9L21.3,31.6z"/>
	<path class="st0" d="M175.9,111.8L167,38.4c-0.7-5.4-2-7.4-5.4-7.6l-52.2-4.9c-4.5-0.3-8-4.1-8.1-9.2c0-4.9-3.7-9.1-8.6-9.7
		L36.8,0.1c-6.1-0.6-10.8,3.4-10.3,9l12.1,123.4c0.3,4.1,4.8,7,10,6.5l121-20.8C173,117.6,176.1,115.3,175.9,111.8z M139.3,45.9
		c2.3-1.3,5.5,0,7.2,3s1.2,6.4-1,7.7s-5.5,0-7.2-3S137.1,47.2,139.3,45.9L139.3,45.9z M124.7,46.8c2.3-1.3,5.5,0,7.2,3
		s1.2,6.4-1,7.7s-5.5,0-7.2-3S122.5,48.1,124.7,46.8L124.7,46.8z M103.6,38.7c2.6-1.5,6.2,0,8.1,3.3s1.4,7.2-1.2,8.7s-6.2,0-8.1-3.3
		S101.1,40.2,103.6,38.7L103.6,38.7z M71.2,32.3c2.8-1.6,6.9,0,9,3.7s1.5,8-1.3,9.6s-6.9,0-9-3.7S68.4,33.9,71.2,32.3z M80.6,113.5
		c-4.6,0.8-8.6,1.5-12.7-1.4s-4.5-11.6-4.6-13.6c-0.1-1.1-0.2-16.7,0-23.6c0.1-0.8-0.1-1.7-0.6-2.4c-1.4-1.5-2.9-0.4-5.4-2.4
		c-1.3-1-2.1-2.6-2-4.2c-0.1-1.4,0.5-2.7,1.5-3.7c2.1-1.9,4.6-0.4,5.9-1.4c0.8-0.6,0.4-3.4,0.7-7.4c0.1-1.9,0.9-3.8,2.4-5
		c1.4-1,3.2-1.5,4.9-1.2c3.9,0.4,7.7,1.4,11.3,3.1c1.2,0.5,2.2,1.4,3,2.4c1.2,1.6,2,3.4,2.2,5.4c0.2,1.6-0.3,4.6,0.7,6.3
		c0.6,1.1,3,1.5,3.6,1.5s4.7,0.8,4.7,4.7c0,1.8-1.1,3.3-2.2,3.4c-1.2,0-2.5,0-3.7,0c-2.2,0-2.2,1.2-2.2,1.8c0,0.4,0.7,22.9,1,25.4
		c0.2,1.7,0.7,3.3,1.6,4.7c1.6,2.1,3.9,3.8,6.4,4.7C96.8,110.7,85.4,112.7,80.6,113.5z M147.7,101.9c-1.4,0.3-20,3.6-20,3.6
		c-2.7,0.3-13.7,2.7-17.8,2.3s-5.9-1.8-7.6-4s-2.3-7.4-2.6-9.4c-0.5-4.4-1.6-23.5-1.9-31.1c-0.4-8.2,1.7-10.7,5.2-11
		c2.5-0.4,9.5,1.2,11.8,2.7c3.1,2,3.3,7.4,3.5,8.7c0.2,1.7,3.6,36.4,4.1,37.6c0.4,1,1.9,0.2,1.8-0.5c-0.4-6.6-2.7-35-2.8-37.5
		c-0.1-1.1,0.2-2.3,0.8-3.2c0.9-1,2.2-1.5,3.5-1.4c2.2,0.2,4.3,0.6,6.3,1.2c2.3,0.9,3.9,3,4.2,5.4c0.1,0.9,3.5,32.5,3.9,33.2
		c0.4,0.4,1,0.3,1.3,0c0.1-0.1,0.2-0.3,0.2-0.5c0.1-0.9-3.1-32.8-3.4-36.1c-0.1-1.4-0.2-4.5,3-4.2c1.5,0.1,3,0.4,4.4,0.8
		c2,0.7,3.5,2.5,3.8,4.6c0,0,1,6,2,14c0.8,6.7,1.9,13.5,1.9,17C153.3,100.9,149,101.6,147.7,101.9L147.7,101.9z"/>
</g>
</svg>
